<svg height="512pt" viewBox="0 0 512 512" width="512pt" xmlns="http://www.w3.org/2000/svg"><path d="m498.871094 227.417969h-1.421875l-5.070313-20.769531c-1.371094-5.621094-6.371094-9.546876-12.15625-9.546876h-58.0625c-.203125 0-1.230468-15.039062-1.304687-15.960937-.804688-9.816406-1.605469-19.632813-2.410157-29.453125-.238281-2.933594-.519531-5.863281-.71875-8.800781-.359374-5.378907-2.5-9.976563-4.324218-15.007813-2.570313-7.09375-5.140625-14.1875-7.710938-21.28125-1.414062-3.898437-5.71875-5.910156-9.617187-4.5-3.898438 1.414063-5.914063 5.71875-4.5 9.617188l7.910156 21.816406h-352.820313l25.289063-69.757812h302.242187l5.457032 15.046874c1.414062 3.898438 5.714844 5.914063 9.617187 4.5 3.894531-1.414062 5.910157-5.71875 4.496094-9.617187l-7.246094-19.996094c-.011719-.027343-.023437-.050781-.035156-.074219v-32.96875c0-11.394531-9.269531-20.664062-20.664063-20.664062h-285.492187c-11.394531 0-20.664063 9.269531-20.664063 20.664062v32.96875c-.011718.027344-.023437.050782-.035156.074219-1.523437 4.207031-3.046875 8.414063-4.574218 12.621094-3.390626 9.355469-6.78125 18.714844-10.175782 28.074219-3.488281 9.621094-6.976562 19.25-10.464844 28.875-2.578124 7.105468-5.253906 13.289062-6.082031 20.886718-.503906 4.609376-.75 9.265626-1.128906 13.886719-.824219 10.039063-18.210937 222.449219-19.011719 232.253907-.742187 9.078124-3.542968 43.328124-4.199218 51.375-.550782 6.722656-1.101563 13.445312-1.652344 20.171874-.414063 5.101563-1.769532 21.675782-2.03125 24.859376-.082032.980468-.160156 1.960937-.2421878 2.941406-.4687502 5.738281 1.4999998 11.453125 5.4023438 15.6875 3.898438 4.234375 9.4375 6.660156 15.195312 6.660156h427.710938c13.101562 0 24.066406-9.421875 25.507812-21.914062 0 0 13.003907-112.335938 13.007813-112.351563l7.550781-65.226563 4.605469-39.769531c6.816406-.09375 12.339844-5.660156 12.339844-12.5v-20.308593c-.003907-6.898438-5.613281-12.511719-12.515625-12.511719zm-424.191406-206.753907c0-3.113281 2.53125-5.648437 5.648437-5.648437h285.496094c3.113281 0 5.648437 2.53125 5.648437 5.648437v28.09375h-296.792968zm403.582031 191.453126 3.730469 15.300781h-183.019532l3.734375-15.300781zm-457.597657 284.867187c-1.597656 0-3.074218-.644531-4.152343-1.820313-1.082031-1.171874-1.605469-2.695312-1.476563-4.285156l27.988282-342.332031h360.101562l3.972656 48.554687h-106.355468c-5.785157 0-10.785157 3.925782-12.15625 9.546876l-5.070313 20.769531h-1.421875c-6.898438 0-12.511719 5.613281-12.511719 12.511719v20.304687c0 6.84375 5.519531 12.410156 12.339844 12.503906l3.988281 34.4375c.476563 4.117188 4.207032 7.078125 8.320313 6.59375 4.117187-.476562 7.070312-4.203125 6.59375-8.320312l-3.785157-32.703125h186.890626l-3.863282 33.371094-172.15625 60.554687-3.113281-26.910156c-.476563-4.117188-4.199219-7.074219-8.320313-6.59375-4.121093.476562-7.070312 4.203125-6.59375 8.320312l4.195313 36.234375v.011719l7.550781 65.230469c0 .011718.003906.023437.003906.035156l5.453126 47.082031c.28125 2.4375.933593 4.75 1.882812 6.902344zm451.832032-125.496094-157.0625 60.144531-5.75-49.667968 168.460937-59.25zm-13.53125 116.875c-.566406 4.914063-5.121094 8.621094-10.589844 8.621094h-115.785156c-5.46875 0-10.019532-3.707031-10.589844-8.625l-4.785156-41.332031 153.335937-58.714844zm37.40625-230.628906h-211.773438v-15.300781h211.773438zm0 0"/></svg>